<svg xmlns="http://www.w3.org/2000/svg" xmlns:xlink="http://www.w3.org/1999/xlink" width="500" zoomAndPan="magnify" viewBox="0 0 375 374.999991" height="500" preserveAspectRatio="xMidYMid meet" version="1.0"><defs><g/></defs><g fill="#7000cc" fill-opacity="1"><g transform="translate(2.062504, 220.124986)"><g><path d="M 23.9375 -28.960938 C 20.21875 -30.722656 16.566406 -30.722656 16.242188 -30.722656 C 12.914062 -30.722656 9.71875 -32.679688 9.71875 -36.460938 C 9.71875 -40.636719 12.652344 -42.789062 16.242188 -42.789062 C 19.632812 -42.789062 22.503906 -41.027344 22.632812 -37.308594 C 22.632812 -37.113281 22.960938 -36.789062 23.351562 -36.789062 L 31.503906 -36.789062 C 31.960938 -36.789062 32.289062 -37.113281 32.222656 -37.308594 C 32.09375 -46.179688 25.179688 -52.183594 16.242188 -52.183594 C 7.890625 -52.183594 0 -46.246094 0 -36.460938 C 0 -30.394531 3.066406 -25.765625 8.480469 -23.285156 C 12.261719 -21.523438 15.785156 -21.523438 16.242188 -21.523438 C 19.175781 -21.394531 22.765625 -19.046875 22.765625 -15.199219 C 22.765625 -11.742188 19.699219 -9.394531 16.242188 -9.394531 C 16.242188 -9.394531 16.242188 -9.394531 16.175781 -9.394531 L 16.175781 0 C 16.242188 0 16.242188 0 16.242188 0 C 24.589844 0 32.417969 -5.414062 32.417969 -15.199219 C 32.417969 -21.328125 29.417969 -26.417969 23.9375 -28.960938 Z M 23.9375 -28.960938 "/></g></g></g><g fill="#7000cc" fill-opacity="1"><g transform="translate(36.110735, 220.124986)"><g><path d="M 38.484375 -52.183594 L 30.003906 -52.183594 C 29.546875 -52.183594 29.289062 -51.855469 29.289062 -51.59375 L 29.289062 -17.414062 C 29.289062 -12.132812 24.460938 -9.589844 19.566406 -9.589844 C 14.742188 -9.589844 10.4375 -12.328125 9.847656 -17.480469 L 9.847656 -42.722656 L 0 -42.722656 L 0 -17.414062 C 0 -6.652344 8.804688 0 19.566406 0 C 30.65625 0 39.136719 -6.390625 39.136719 -17.414062 L 39.136719 -51.59375 C 39.136719 -51.855469 38.808594 -52.183594 38.484375 -52.183594 Z M 38.484375 -52.183594 "/></g></g></g><g fill="#7000cc" fill-opacity="1"><g transform="translate(77.203422, 220.124986)"><g><path d="M 25.4375 -36.65625 C 25.4375 -30.917969 17.742188 -30.917969 17.742188 -30.917969 L 9.914062 -30.917969 L 9.914062 -42.855469 L 17.742188 -42.855469 C 17.742188 -42.855469 25.4375 -42.917969 25.4375 -36.65625 Z M 35.417969 -37.246094 C 35.417969 -52.574219 17.742188 -52.183594 17.742188 -52.183594 L 0.71875 -52.183594 C 0.324219 -52.183594 0 -51.855469 0 -51.59375 L 0 -21.199219 L 17.742188 -21.199219 C 17.742188 -21.199219 26.15625 -21.589844 26.15625 -15.457031 C 26.15625 -10.4375 21.003906 -9.523438 17.742188 -9.523438 L 9.980469 -9.523438 L 9.980469 0 L 17.742188 0 C 21.265625 0 36.136719 -0.652344 36.136719 -15.199219 C 36.136719 -15.199219 36.460938 -23.285156 28.179688 -26.089844 C 32.15625 -27.722656 35.417969 -31.179688 35.417969 -37.246094 Z M 35.417969 -37.246094 "/></g></g></g><g fill="#7000cc" fill-opacity="1"><g transform="translate(115.165234, 220.124986)"><g><path d="M 46.703125 -12.589844 L 56.617188 -12.589844 L 56.617188 -51.59375 C 56.617188 -51.855469 56.355469 -52.183594 55.898438 -52.183594 L 47.289062 -52.183594 C 47.027344 -52.183594 46.703125 -51.984375 46.574219 -51.789062 L 28.765625 -13.566406 L 10.046875 -51.789062 C 9.980469 -51.984375 9.589844 -52.183594 9.394531 -52.183594 L 0.652344 -52.183594 C 0.195312 -52.183594 0 -51.855469 0 -51.59375 L 0 -0.585938 C 0 -0.324219 0.195312 0 0.652344 0 L 9.261719 0 C 9.652344 0 9.980469 -0.324219 9.980469 -0.585938 L 9.980469 -29.875 L 24.132812 -2.480469 C 24.199219 -2.28125 24.589844 -2.085938 24.785156 -2.085938 L 32.808594 -2.085938 C 33.003906 -2.085938 33.332031 -2.28125 33.394531 -2.480469 L 46.703125 -29.15625 Z M 46.703125 -12.589844 "/></g></g></g><g fill="#7000cc" fill-opacity="1"><g transform="translate(174.651791, 220.124986)"><g><path d="M 29.613281 -42.203125 L 24.132812 -34.570312 L 11.742188 -51.984375 C 11.609375 -52.117188 11.285156 -52.183594 11.089844 -52.183594 L 0.78125 -52.183594 C 0.0664062 -52.183594 -0.195312 -51.660156 0.128906 -51.203125 C 6.457031 -42.332031 12.914062 -33.460938 19.175781 -24.527344 L 19.175781 -0.585938 C 19.175781 -0.324219 19.4375 0 19.894531 0 L 28.4375 0 C 28.832031 0 29.15625 -0.324219 29.15625 -0.585938 L 29.15625 -24.527344 L 41.746094 -42.203125 Z M 29.613281 -42.203125 "/></g></g></g><g fill="#7000cc" fill-opacity="1"><g transform="translate(218.483998, 220.124986)"><g><path d="M 54.203125 -42.59375 L 47.550781 -24.65625 L 37.246094 -51.789062 C 37.113281 -52.050781 36.855469 -52.183594 36.59375 -52.183594 L 27.722656 -52.183594 C 27.460938 -52.183594 27.199219 -52.050781 27.132812 -51.789062 L 16.761719 -24.65625 L 10.175781 -42.59375 L 0 -42.59375 L 16.175781 -0.390625 C 16.371094 0.128906 17.21875 0.128906 17.414062 -0.390625 L 32.15625 -39.070312 L 46.898438 -0.390625 C 47.09375 0.128906 47.941406 0.128906 48.136719 -0.390625 L 64.378906 -42.59375 Z M 54.203125 -42.59375 "/></g></g></g><g fill="#7000cc" fill-opacity="1"><g transform="translate(286.058655, 220.124986)"><g><path d="M 40.960938 -0.78125 L 21.132812 -51.789062 C 20.9375 -52.3125 20.023438 -52.3125 19.828125 -51.789062 L 0.0664062 -0.78125 C -0.128906 -0.390625 0.128906 0 0.71875 0 L 9.652344 0 C 9.914062 0 10.242188 -0.128906 10.304688 -0.390625 L 20.480469 -29.484375 L 30.789062 -0.390625 C 30.851562 -0.128906 31.179688 0 31.375 0 L 40.375 0 C 40.832031 0 41.160156 -0.390625 40.960938 -0.78125 Z M 40.960938 -0.78125 "/></g></g></g><g fill="#7000cc" fill-opacity="1"><g transform="translate(329.108144, 220.124986)"><g><path d="M 29.613281 -42.203125 L 24.132812 -34.570312 L 11.742188 -51.984375 C 11.609375 -52.117188 11.285156 -52.183594 11.089844 -52.183594 L 0.78125 -52.183594 C 0.0664062 -52.183594 -0.195312 -51.660156 0.128906 -51.203125 C 6.457031 -42.332031 12.914062 -33.460938 19.175781 -24.527344 L 19.175781 -0.585938 C 19.175781 -0.324219 19.4375 0 19.894531 0 L 28.4375 0 C 28.832031 0 29.15625 -0.324219 29.15625 -0.585938 L 29.15625 -24.527344 L 41.746094 -42.203125 Z M 29.613281 -42.203125 "/></g></g></g></svg>