<svg xmlns="http://www.w3.org/2000/svg" xmlns:xlink="http://www.w3.org/1999/xlink" width="500" zoomAndPan="magnify" viewBox="0 0 375 149.999998" height="200" preserveAspectRatio="xMidYMid meet" version="1.0"><defs><g/><clipPath id="1d9d15b912"><path d="M 26.839844 32.351562 L 112.339844 32.351562 L 112.339844 117.851562 L 26.839844 117.851562 Z M 26.839844 32.351562 " clip-rule="nonzero"/></clipPath><clipPath id="b5858db53c"><path d="M 69.589844 32.351562 C 45.976562 32.351562 26.839844 51.492188 26.839844 75.101562 C 26.839844 98.710938 45.976562 117.851562 69.589844 117.851562 C 93.199219 117.851562 112.339844 98.710938 112.339844 75.101562 C 112.339844 51.492188 93.199219 32.351562 69.589844 32.351562 " clip-rule="nonzero"/></clipPath></defs><path stroke-linecap="butt" transform="matrix(0.742081, 0, 0, 0.75, 54.726907, 93.974622)" fill="none" stroke-linejoin="miter" d="M -0.000464413 3.002587 L 41.442302 3.002587 " stroke="#0ac2a3" stroke-width="6" stroke-opacity="1" stroke-miterlimit="4"/><g clip-path="url(#1d9d15b912)"><g clip-path="url(#b5858db53c)"><path stroke-linecap="butt" transform="matrix(0.751855, 0, 0, 0.751855, 26.837944, 32.350481)" fill="none" stroke-linejoin="miter" d="M 56.861905 0.00143824 C 25.455203 0.00143824 0.0025268 25.45931 0.0025268 56.860816 C 0.0025268 88.262322 25.455203 113.720194 56.861905 113.720194 C 88.26341 113.720194 113.721282 88.262322 113.721282 56.860816 C 113.721282 25.45931 88.26341 0.00143824 56.861905 0.00143824 " stroke="#0ac2a3" stroke-width="12" stroke-opacity="1" stroke-miterlimit="4"/></g></g><g fill="#0ac2a3" fill-opacity="1"><g transform="translate(54.334023, 88.121393)"><g><path d="M 14.640625 -16.457031 C 20.34375 -15.699219 21.808594 -14.136719 21.808594 -11.308594 L 21.808594 -11.054688 C 21.808594 -8.429688 19.941406 -6.410156 16.15625 -6.410156 L 15.699219 -6.410156 C 11.914062 -6.410156 9.894531 -8.480469 9.894531 -13.429688 L 1.714844 -13.429688 L 1.714844 -12.972656 C 1.714844 -3.484375 6.613281 0.65625 15.902344 0.65625 C 25.140625 0.65625 30.140625 -3.734375 30.140625 -11.308594 L 30.140625 -11.8125 C 30.140625 -19.132812 25.796875 -22.0625 17.214844 -23.222656 C 11.460938 -23.980469 10.296875 -25.496094 10.296875 -28.371094 L 10.296875 -28.625 C 10.296875 -31.148438 12.21875 -32.964844 15.5 -32.964844 L 15.953125 -32.964844 C 20.09375 -32.964844 21.65625 -30.59375 21.65625 -25.445312 L 29.835938 -25.445312 L 29.835938 -26.503906 C 29.835938 -35.742188 25.59375 -40.035156 15.902344 -40.035156 C 6.917969 -40.035156 2.019531 -35.441406 2.019531 -28.320312 L 2.019531 -27.765625 C 2.019531 -20.648438 6.058594 -17.617188 14.640625 -16.457031 Z M 14.640625 -16.457031 "/></g></g></g><g fill="#8700f5" fill-opacity="1"><g transform="translate(112.13698, 93.479615)"><g><path d="M 2.589844 -28.605469 L 2.589844 -9.230469 C 2.589844 -4.046875 4.910156 0.703125 11.441406 0.703125 C 15.8125 0.703125 18.78125 -1.078125 20.617188 -3.617188 L 21.265625 0 L 28.875 0 L 28.390625 -8.097656 L 28.390625 -28.605469 L 19.863281 -28.605469 L 19.863281 -9.335938 C 19.160156 -8.3125 17.542969 -6.636719 14.84375 -6.636719 C 11.929688 -6.636719 11.0625 -8.582031 11.0625 -10.632812 L 11.0625 -28.605469 Z M 2.589844 -28.605469 "/></g></g></g><g fill="#8700f5" fill-opacity="1"><g transform="translate(142.785401, 93.479615)"><g><path d="M 11.386719 -43.179688 L 2.859375 -43.179688 L 2.859375 -8.097656 L 2.375 0 L 9.984375 0 L 10.578125 -3.453125 C 12.199219 -1.027344 14.734375 0.703125 18.726562 0.703125 C 26.554688 0.703125 29.359375 -5.074219 29.359375 -13.332031 L 29.359375 -15.273438 C 29.359375 -23.53125 26.554688 -29.308594 18.726562 -29.308594 C 15.328125 -29.308594 13.007812 -28.066406 11.386719 -26.175781 Z M 11.386719 -19.269531 C 12.089844 -20.292969 13.710938 -21.96875 16.246094 -21.96875 C 19.539062 -21.96875 20.832031 -19.484375 20.832031 -15.273438 L 20.832031 -13.332031 C 20.832031 -9.121094 19.539062 -6.636719 16.246094 -6.636719 C 13.710938 -6.636719 12.089844 -8.3125 11.386719 -9.335938 Z M 11.386719 -19.269531 "/></g></g></g><g fill="#8700f5" fill-opacity="1"><g transform="translate(173.110071, 93.479615)"><g><path d="M 43.988281 0 L 43.988281 -19.699219 C 43.988281 -25.097656 41.449219 -29.308594 35.515625 -29.308594 C 31.25 -29.308594 28.445312 -27.417969 26.714844 -24.882812 C 25.476562 -27.578125 23.046875 -29.308594 19.214844 -29.308594 C 15.113281 -29.308594 12.359375 -27.578125 10.632812 -25.152344 L 10.039062 -28.605469 L 2.429688 -28.605469 L 2.914062 -20.507812 L 2.914062 0 L 11.441406 0 L 11.441406 -19.484375 C 12.089844 -20.507812 13.4375 -21.96875 15.8125 -21.96875 C 18.1875 -21.96875 19.214844 -20.617188 19.214844 -18.351562 L 19.214844 0 L 27.6875 0 L 27.6875 -19.484375 C 28.390625 -20.507812 29.683594 -21.96875 32.113281 -21.96875 C 34.488281 -21.96875 35.515625 -20.617188 35.515625 -18.351562 L 35.515625 0 Z M 43.988281 0 "/></g></g></g><g fill="#8700f5" fill-opacity="1"><g transform="translate(219.028824, 93.479615)"><g><path d="M 14.949219 -10.363281 L 9.554688 -28.605469 L 0.269531 -28.605469 L 10.308594 -1.511719 L 5.722656 10.792969 L 15.867188 10.792969 L 19.539062 -1.511719 L 29.632812 -28.605469 L 20.347656 -28.605469 Z M 14.949219 -10.363281 "/></g></g></g><g fill="#8700f5" fill-opacity="1"><g transform="translate(248.112436, 93.479615)"><g><path d="M 20.671875 -19.699219 L 24.664062 0 L 35.351562 0 L 40.316406 -28.605469 L 31.953125 -28.605469 L 29.792969 -9.230469 L 25.746094 -28.605469 L 15.542969 -28.605469 L 11.550781 -9.230469 L 9.390625 -28.605469 L 1.027344 -28.605469 L 5.9375 0 L 16.675781 0 Z M 20.671875 -19.699219 "/></g></g></g><g fill="#8700f5" fill-opacity="1"><g transform="translate(288.797198, 93.479615)"><g><path d="M 19.863281 0 L 27.527344 0 L 26.984375 -8.097656 L 26.984375 -18.40625 C 26.984375 -25.3125 24.179688 -29.308594 14.84375 -29.308594 C 5.398438 -29.308594 2.699219 -24.613281 2.699219 -19.644531 L 2.699219 -19.160156 L 10.742188 -19.160156 C 10.742188 -21.050781 11.496094 -22.832031 14.574219 -22.832031 C 17.488281 -22.832031 18.40625 -21.425781 18.457031 -18.621094 L 11.875 -17.59375 C 5.882812 -16.675781 1.621094 -14.625 1.621094 -8.417969 L 1.621094 -7.878906 C 1.621094 -3.292969 3.941406 0.703125 10.363281 0.703125 C 14.355469 0.703125 17.324219 -0.808594 19.320312 -2.96875 Z M 13.492188 -6.207031 C 11.011719 -6.207031 10.09375 -7.664062 10.09375 -9.121094 L 10.09375 -9.445312 C 10.09375 -11.171875 10.957031 -12.414062 13.601562 -12.84375 L 18.457031 -13.601562 L 18.457031 -8.367188 C 17.542969 -7.394531 15.921875 -6.207031 13.492188 -6.207031 Z M 13.492188 -6.207031 "/></g></g></g><g fill="#8700f5" fill-opacity="1"><g transform="translate(317.772897, 93.479615)"><g><path d="M 14.949219 -10.363281 L 9.554688 -28.605469 L 0.269531 -28.605469 L 10.308594 -1.511719 L 5.722656 10.792969 L 15.867188 10.792969 L 19.539062 -1.511719 L 29.632812 -28.605469 L 20.347656 -28.605469 Z M 14.949219 -10.363281 "/></g></g></g></svg>